<svg width="22" height="26" viewBox="0 0 22 26" fill="none" xmlns="http://www.w3.org/2000/svg">
<path d="M16.4444 8.33333V6.03889C16.4444 5.32391 16.3036 4.61594 16.03 3.95539C15.7564 3.29484 15.3553 2.69465 14.8498 2.18909C14.3442 1.68352 13.744 1.28249 13.0835 1.00888C12.4229 0.735269 11.7149 0.594444 11 0.594444C10.285 0.594444 9.57702 0.735269 8.91647 1.00888C8.25592 1.28249 7.65573 1.68352 7.15017 2.18909C6.64461 2.69465 6.24357 3.29484 5.96996 3.95539C5.69635 4.61594 5.55553 5.32391 5.55553 6.03889V11.4833C5.55553 11.6896 5.63747 11.8874 5.78333 12.0333C5.9292 12.1792 6.12703 12.2611 6.33331 12.2611C6.53959 12.2611 6.73742 12.1792 6.88328 12.0333C7.02914 11.8874 7.11108 11.6896 7.11108 11.4833V9.88889H13.3333V8.33333H7.11108V6.03889C7.11108 5.00749 7.52081 4.01834 8.25011 3.28903C8.97942 2.55972 9.96858 2.15 11 2.15C12.0314 2.15 13.0205 2.55972 13.7498 3.28903C14.4791 4.01834 14.8889 5.00749 14.8889 6.03889V11.4444C14.8889 11.6507 14.9708 11.8486 15.1167 11.9944C15.2625 12.1403 15.4604 12.2222 15.6666 12.2222C15.8729 12.2222 16.0708 12.1403 16.2166 11.9944C16.3625 11.8486 16.4444 11.6507 16.4444 11.4444V9.88889H20.3333V23.8889H1.66664V9.88889H3.99997V8.33333H0.111084V23.9589C0.111084 24.3529 0.267597 24.7307 0.546193 25.0093C0.824789 25.2879 1.20265 25.4444 1.59664 25.4444H20.4033C20.7973 25.4444 21.1752 25.2879 21.4538 25.0093C21.7323 24.7307 21.8889 24.3529 21.8889 23.9589V8.33333H16.4444Z" fill="white"/>
</svg>
