<svg width="20" height="19" viewBox="0 0 20 19" fill="none" xmlns="http://www.w3.org/2000/svg">
<mask id="path-1-inside-1" fill="white">
<path d="M4.11765 19H2.94118L3.64706 18.05C4.11765 17.3969 4.41176 16.5656 4.58824 15.5562C1.64706 14.1906 0 11.6375 0 8.3125C0 3.20625 3.82353 0 10 0C16.1765 0 20 3.20625 20 8.3125C20 13.5375 16.2353 16.625 10 16.625H9.58823C8.64706 17.7531 7 19 4.11765 19ZM10 1.1875C4.47059 1.1875 1.17647 3.85938 1.17647 8.3125C1.17647 12.1125 3.47059 13.8938 5.41177 14.6656L5.82353 14.8438L5.76471 15.3187C5.64706 16.2687 5.47059 17.1 5.11765 17.8125C7.05882 17.575 8.17647 16.5656 8.82353 15.7344L9 15.4969H10C17.9412 15.4969 18.8235 10.5094 18.8235 8.37187C18.8235 3.85938 15.5294 1.1875 10 1.1875Z"/>
</mask>
<path d="M4.11765 19H2.94118L3.64706 18.05C4.11765 17.3969 4.41176 16.5656 4.58824 15.5562C1.64706 14.1906 0 11.6375 0 8.3125C0 3.20625 3.82353 0 10 0C16.1765 0 20 3.20625 20 8.3125C20 13.5375 16.2353 16.625 10 16.625H9.58823C8.64706 17.7531 7 19 4.11765 19ZM10 1.1875C4.47059 1.1875 1.17647 3.85938 1.17647 8.3125C1.17647 12.1125 3.47059 13.8938 5.41177 14.6656L5.82353 14.8438L5.76471 15.3187C5.64706 16.2687 5.47059 17.1 5.11765 17.8125C7.05882 17.575 8.17647 16.5656 8.82353 15.7344L9 15.4969H10C17.9412 15.4969 18.8235 10.5094 18.8235 8.37187C18.8235 3.85938 15.5294 1.1875 10 1.1875Z" fill="#898A8D"/>
<path d="M2.94118 19L1.33583 17.8072L-1.03656 21H2.94118V19ZM3.64706 18.05L5.25241 19.2428L5.26116 19.2311L5.26973 19.2192L3.64706 18.05ZM4.58824 15.5562L6.55835 15.9007L6.8227 14.3887L5.4305 13.7423L4.58824 15.5562ZM9.58823 16.625V14.625H8.65217L8.05251 15.3438L9.58823 16.625ZM5.41177 14.6656L6.20583 12.83L6.17846 12.8182L6.15075 12.8072L5.41177 14.6656ZM5.82353 14.8438L7.80837 15.0896L7.99247 13.6029L6.61759 13.0081L5.82353 14.8438ZM5.76471 15.3187L3.77987 15.0729L3.77987 15.0729L5.76471 15.3187ZM5.11765 17.8125L3.32548 16.9247L1.67923 20.2481L5.36053 19.7977L5.11765 17.8125ZM8.82353 15.7344L10.4017 16.9629L10.4155 16.9452L10.4289 16.9272L8.82353 15.7344ZM9 15.4969V13.4969H7.9944L7.39464 14.304L9 15.4969ZM4.11765 17H2.94118V21H4.11765V17ZM4.54653 20.1928L5.25241 19.2428L2.04171 16.8572L1.33583 17.8072L4.54653 20.1928ZM5.26973 19.2192C5.97927 18.2344 6.35201 17.0809 6.55835 15.9007L2.61812 15.2118C2.47152 16.0503 2.25603 16.5593 2.02439 16.8808L5.26973 19.2192ZM5.4305 13.7423C3.19897 12.7061 2 10.863 2 8.3125H-2C-2 12.412 0.0951428 15.6751 3.74597 17.3702L5.4305 13.7423ZM2 8.3125C2 6.29895 2.73214 4.80448 3.96414 3.7779C5.23741 2.71691 7.23852 2 10 2V-2C6.58501 -2 3.58612 -1.11379 1.40351 0.704917C-0.820379 2.55802 -2 5.2198 -2 8.3125H2ZM10 2C12.7615 2 14.7626 2.71691 16.0359 3.7779C17.2679 4.80448 18 6.29895 18 8.3125H22C22 5.2198 20.8204 2.55802 18.5965 0.704917C16.4139 -1.11379 13.415 -2 10 -2V2ZM18 8.3125C18 10.4058 17.2685 11.889 16.0625 12.8878C14.8074 13.9273 12.8124 14.625 10 14.625V18.625C13.4229 18.625 16.4279 17.7789 18.6139 15.9684C20.8491 14.1173 22 11.4442 22 8.3125H18ZM10 14.625H9.58823V18.625H10V14.625ZM8.05251 15.3438C7.42698 16.0936 6.31322 17 4.11765 17V21C7.68678 21 9.86714 19.4127 11.124 17.9062L8.05251 15.3438ZM10 -0.8125C6.94011 -0.8125 4.23651 -0.0753642 2.25729 1.52479C0.223681 3.16893 -0.823529 5.54828 -0.823529 8.3125H3.17647C3.17647 6.6236 3.77632 5.44045 4.77212 4.63536C5.82231 3.7863 7.53048 3.1875 10 3.1875V-0.8125ZM-0.823529 8.3125C-0.823529 10.6481 -0.106744 12.4897 1.00649 13.8766C2.09562 15.2334 3.47646 16.0484 4.67278 16.5241L6.15075 12.8072C5.40589 12.511 4.66909 12.0494 4.12586 11.3727C3.60674 10.7259 3.17647 9.7769 3.17647 8.3125H-0.823529ZM4.6177 16.5012L5.02946 16.6794L6.61759 13.0081L6.20583 12.83L4.6177 16.5012ZM3.83869 14.5979L3.77987 15.0729L7.74954 15.5646L7.80837 15.0896L3.83869 14.5979ZM3.77987 15.0729C3.67134 15.9493 3.5284 16.5151 3.32548 16.9247L6.90982 18.7003C7.41278 17.6849 7.62278 16.5882 7.74954 15.5646L3.77987 15.0729ZM5.36053 19.7977C7.97397 19.4779 9.52954 18.0834 10.4017 16.9629L7.24531 14.5059C6.8234 15.0479 6.14368 15.6721 4.87476 15.8273L5.36053 19.7977ZM10.4289 16.9272L10.6054 16.6897L7.39464 14.304L7.21817 14.5415L10.4289 16.9272ZM9 17.4969H10V13.4969H9V17.4969ZM10 17.4969C14.4156 17.4969 17.2667 16.0878 18.9504 13.9866C20.566 11.9704 20.8235 9.66163 20.8235 8.37187H16.8235C16.8235 9.21961 16.6399 10.4733 15.829 11.4853C15.0862 12.4122 13.5256 13.4969 10 13.4969V17.4969ZM20.8235 8.37187C20.8235 5.58638 19.7825 3.19134 17.7473 1.53594C15.7662 -0.0754198 13.0596 -0.8125 10 -0.8125V3.1875C12.4698 3.1875 14.1749 3.78636 15.2233 4.63906C16.2175 5.44772 16.8235 6.64487 16.8235 8.37187H20.8235Z" fill="#898A8D" mask="url(#path-1-inside-1)"/>
</svg>
