<svg width="32" height="27" viewBox="0 0 32 27" fill="none" xmlns="http://www.w3.org/2000/svg">
<path d="M27.7766 20.4163H9.5685L4.21319 1.02637H1M5.28425 4.71969H30.9897L27.7766 16.723H8.49744L5.28425 4.71969Z" stroke="white" stroke-width="2" stroke-linecap="round" stroke-linejoin="round"/>
<path d="M25.6343 25.9564C26.8174 25.9564 27.7765 25.1296 27.7765 24.1097C27.7765 23.0898 26.8174 22.2631 25.6343 22.2631C24.4513 22.2631 23.4922 23.0898 23.4922 24.1097C23.4922 25.1296 24.4513 25.9564 25.6343 25.9564Z" stroke="white" stroke-width="2" stroke-linecap="round" stroke-linejoin="round"/>
<path d="M11.7105 25.9564C12.8936 25.9564 13.8527 25.1296 13.8527 24.1097C13.8527 23.0898 12.8936 22.2631 11.7105 22.2631C10.5274 22.2631 9.56836 23.0898 9.56836 24.1097C9.56836 25.1296 10.5274 25.9564 11.7105 25.9564Z" stroke="white" stroke-width="2" stroke-linecap="round" stroke-linejoin="round"/>
</svg>
