<svg width="21" height="21" viewBox="0 0 21 21" fill="none" xmlns="http://www.w3.org/2000/svg">
<path d="M13.65 10.5C13.65 11.3354 13.3181 12.1366 12.7274 12.7274C12.1366 13.3181 11.3354 13.65 10.5 13.65C9.66455 13.65 8.86334 13.3181 8.2726 12.7274C7.68186 12.1366 7.34998 11.3354 7.34998 10.5C7.34998 10.3204 7.36888 10.1451 7.40143 9.97498H6.29998V14.1718C6.29998 14.4637 6.53623 14.7 6.82813 14.7H14.1729C14.3128 14.6997 14.4468 14.6439 14.5457 14.5449C14.6445 14.4459 14.7 14.3117 14.7 14.1718V9.97498H13.5985C13.6311 10.1451 13.65 10.3204 13.65 10.5ZM10.5 12.6C10.7758 12.5999 11.049 12.5455 11.3038 12.4399C11.5586 12.3343 11.7901 12.1795 11.9851 11.9844C12.1801 11.7893 12.3348 11.5577 12.4403 11.3028C12.5458 11.0479 12.6001 10.7748 12.6 10.4989C12.5999 10.2231 12.5455 9.94996 12.4399 9.69514C12.3343 9.44032 12.1795 9.2088 11.9844 9.01379C11.7893 8.81879 11.5577 8.66412 11.3028 8.55863C11.0479 8.45313 10.7748 8.39886 10.4989 8.39893C9.94184 8.39907 9.40762 8.62051 9.01379 9.01453C8.61997 9.40856 8.39879 9.94289 8.39893 10.5C8.39907 11.0571 8.62051 11.5913 9.01453 11.9851C9.40856 12.379 9.94289 12.6001 10.5 12.6ZM13.02 8.29498H14.2789C14.3626 8.29498 14.4428 8.26183 14.502 8.20279C14.5613 8.14374 14.5947 8.06362 14.595 7.97998V6.72103C14.595 6.63721 14.5617 6.55682 14.5024 6.49755C14.4431 6.43828 14.3628 6.40498 14.2789 6.40498H13.02C12.9362 6.40498 12.8558 6.43828 12.7965 6.49755C12.7372 6.55682 12.7039 6.63721 12.7039 6.72103V7.97998C12.705 8.15323 12.8467 8.29498 13.02 8.29498ZM10.5 0.419983C7.8266 0.419983 5.26271 1.48198 3.37235 3.37235C1.48198 5.26271 0.419983 7.8266 0.419983 10.5C0.419983 13.1734 1.48198 15.7373 3.37235 17.6276C5.26271 19.518 7.8266 20.58 10.5 20.58C11.8237 20.58 13.1345 20.3193 14.3574 19.8127C15.5804 19.3061 16.6916 18.5636 17.6276 17.6276C18.5636 16.6916 19.3061 15.5804 19.8127 14.3574C20.3193 13.1345 20.58 11.8237 20.58 10.5C20.58 9.17626 20.3193 7.8655 19.8127 6.64253C19.3061 5.41957 18.5636 4.30836 17.6276 3.37235C16.6916 2.43633 15.5804 1.69384 14.3574 1.18728C13.1345 0.68071 11.8237 0.419983 10.5 0.419983ZM15.75 14.5834C15.75 15.225 15.225 15.75 14.5834 15.75H6.41653C5.77498 15.75 5.24998 15.225 5.24998 14.5834V6.41653C5.24998 5.77498 5.77498 5.24998 6.41653 5.24998H14.5834C15.225 5.24998 15.75 5.77498 15.75 6.41653V14.5834Z" fill="#DB5151"/>
</svg>
