<svg width="21" height="21" viewBox="0 0 21 21" fill="none" xmlns="http://www.w3.org/2000/svg">
<path d="M10.5 0.328125C4.6996 0.328125 0 4.88086 0 10.5C0 16.1191 4.6996 20.6719 10.5 20.6719C16.3004 20.6719 21 16.1191 21 10.5C21 4.88086 16.3004 0.328125 10.5 0.328125ZM17.6764 14.2283C17.5282 14.5605 16.9101 14.8025 15.7796 14.9748C15.7204 15.0527 15.6738 15.3768 15.5976 15.627C15.551 15.7787 15.4409 15.8689 15.2546 15.8689H15.2462C14.9837 15.8689 14.7042 15.75 14.1538 15.75C13.4087 15.75 13.1504 15.9141 12.5704 16.3119C11.9565 16.7344 11.3679 17.0953 10.4873 17.0584C9.59819 17.124 8.85302 16.599 8.43387 16.3119C7.8496 15.9141 7.59556 15.75 6.8504 15.75C6.32117 15.75 5.98669 15.8771 5.75806 15.8771C5.52944 15.8771 5.44052 15.7418 5.40665 15.6311C5.33044 15.3809 5.28387 15.0527 5.2246 14.9748C4.64032 14.8887 3.32782 14.6672 3.29819 14.0971C3.28972 13.9494 3.39556 13.8182 3.54798 13.7936C5.50827 13.4818 6.38891 11.5336 6.42702 11.4516C6.42702 11.4475 6.43125 11.4434 6.43548 11.4393C6.54133 11.2342 6.5625 11.0619 6.50323 10.9266C6.35927 10.6025 5.74536 10.4877 5.4871 10.3852C4.81815 10.1309 4.725 9.83555 4.76734 9.63457C4.83508 9.28594 5.37702 9.06855 5.69456 9.21211C5.94436 9.32695 6.16875 9.38438 6.35927 9.38438C6.49899 9.38438 6.59214 9.35156 6.63871 9.32695C6.57944 8.34668 6.43972 6.94805 6.7996 6.16465C7.75222 4.10156 9.76754 3.9375 10.3603 3.9375C10.3857 3.9375 10.6185 3.9334 10.644 3.9334C12.1131 3.9334 13.523 4.66348 14.2131 6.16055C14.573 6.94395 14.4333 8.33848 14.374 9.32285C14.4206 9.34746 14.4968 9.37617 14.6153 9.38027C14.7974 9.37207 15.0048 9.31465 15.2377 9.20801C15.4071 9.13008 15.6442 9.14238 15.8135 9.20801C16.0802 9.30234 16.2496 9.48691 16.2538 9.69609C16.2581 9.9627 16.0125 10.1924 15.5256 10.377C15.4663 10.4016 15.3944 10.4221 15.3181 10.4467C15.0429 10.5328 14.6238 10.66 14.5137 10.9184C14.4544 11.0537 14.4798 11.226 14.5815 11.4311C14.5857 11.4352 14.5857 11.4393 14.5899 11.4434C14.628 11.5254 15.5087 13.4736 17.469 13.7854C17.6383 13.8264 17.7696 14.0109 17.6764 14.2283Z" fill="#DB5151"/>
</svg>
