<svg width="18" height="20" viewBox="0 0 18 20" fill="none" xmlns="http://www.w3.org/2000/svg">
<path d="M9.44249 0.016875C10.5331 0 11.6175 0.01 12.7006 0C12.7662 1.27562 13.225 2.575 14.1587 3.47688C15.0906 4.40125 16.4087 4.82438 17.6912 4.9675V8.32312C16.4894 8.28375 15.2819 8.03375 14.1912 7.51625C13.7162 7.30125 13.2737 7.02437 12.8406 6.74125C12.835 9.17625 12.8506 11.6081 12.825 14.0331C12.76 15.1981 12.3756 16.3575 11.6981 17.3175C10.6081 18.9156 8.71624 19.9575 6.77311 19.99C5.58124 20.0581 4.39061 19.7331 3.37499 19.1344C1.69186 18.1419 0.507485 16.325 0.334985 14.375C0.313257 13.962 0.309921 13.5483 0.324985 13.135C0.474985 11.5494 1.25936 10.0325 2.47686 9.00062C3.85686 7.79875 5.78999 7.22625 7.59999 7.565C7.61686 8.79938 7.56749 10.0325 7.56749 11.2669C6.74061 10.9994 5.77436 11.0744 5.05186 11.5763C4.52326 11.9245 4.1238 12.4368 3.91499 13.0344C3.74249 13.4569 3.79186 13.9263 3.80186 14.375C3.99999 15.7425 5.31499 16.8919 6.71874 16.7675C7.64936 16.7575 8.54123 16.2175 9.02624 15.4269C9.18311 15.15 9.35874 14.8669 9.36811 14.5413C9.44999 13.0506 9.41749 11.5662 9.42749 10.0756C9.43436 6.71625 9.41749 3.36625 9.44311 0.0175L9.44249 0.016875Z" fill="#DB5151"/>
</svg>
