<svg width="22" height="26" viewBox="0 0 22 26" fill="none" xmlns="http://www.w3.org/2000/svg">
<path d="M16.4444 8.33333V6.03889C16.4444 5.32391 16.3036 4.61594 16.03 3.95539C15.7564 3.29484 15.3554 2.69465 14.8498 2.18909C14.3442 1.68352 13.744 1.28249 13.0835 1.00888C12.4229 0.735269 11.715 0.594444 11 0.594444C10.285 0.594444 9.57705 0.735269 8.9165 1.00888C8.25595 1.28249 7.65576 1.68352 7.1502 2.18909C6.64463 2.69465 6.2436 3.29484 5.96999 3.95539C5.69638 4.61594 5.55556 5.32391 5.55556 6.03889V11.4833C5.55556 11.6896 5.6375 11.8874 5.78336 12.0333C5.92922 12.1792 6.12705 12.2611 6.33333 12.2611C6.53961 12.2611 6.73744 12.1792 6.8833 12.0333C7.02917 11.8874 7.11111 11.6896 7.11111 11.4833V9.88889H13.3333V8.33333H7.11111V6.03889C7.11111 5.00749 7.52083 4.01834 8.25014 3.28903C8.97945 2.55972 9.9686 2.15 11 2.15C12.0314 2.15 13.0206 2.55972 13.7499 3.28903C14.4792 4.01834 14.8889 5.00749 14.8889 6.03889V11.4444C14.8889 11.6507 14.9708 11.8486 15.1167 11.9944C15.2626 12.1403 15.4604 12.2222 15.6667 12.2222C15.8729 12.2222 16.0708 12.1403 16.2166 11.9944C16.3625 11.8486 16.4444 11.6507 16.4444 11.4444V9.88889H20.3333V23.8889H1.66667V9.88889H4V8.33333H0.111111V23.9589C0.111111 24.3529 0.267624 24.7307 0.54622 25.0093C0.824815 25.2879 1.20267 25.4444 1.59667 25.4444H20.4033C20.7973 25.4444 21.1752 25.2879 21.4538 25.0093C21.7324 24.7307 21.8889 24.3529 21.8889 23.9589V8.33333H16.4444Z" fill="white"/>
</svg>
