<svg width="20" height="19" viewBox="0 0 20 19" fill="none" xmlns="http://www.w3.org/2000/svg">
<path d="M4.11765 18.5H3.93561L4.0484 18.3482L4.04844 18.3482L4.05273 18.3423C4.58305 17.6063 4.89682 16.6945 5.08076 15.6424L5.14685 15.2644L4.7988 15.1027C2.03504 13.8195 0.5 11.4439 0.5 8.3125C0.5 5.89427 1.39995 3.96206 3.0039 2.62553C4.61818 1.2804 6.99345 0.5 10 0.5C13.0065 0.5 15.3818 1.2804 16.9961 2.62553C18.6001 3.96206 19.5 5.89427 19.5 8.3125C19.5 10.7952 18.6113 12.7246 17.0193 14.043C15.4151 15.3717 13.0413 16.125 10 16.125H9.58823H9.35422L9.2043 16.3047C8.34204 17.3382 6.82831 18.5 4.11765 18.5ZM2.17626 12.9376C3.05865 14.0369 4.1948 14.7187 5.21998 15.1274L5.28129 15.154L5.2685 15.2573C5.15313 16.1889 4.98504 16.9538 4.6696 17.5906L4.25804 18.4214L5.17837 18.3088C7.28761 18.0507 8.51474 16.9451 9.21808 16.0415L9.21818 16.0416L9.22487 16.0326L9.2514 15.9969H10C14.0818 15.9969 16.449 14.7094 17.7799 13.0486C19.0937 11.409 19.3235 9.49588 19.3235 8.37187C19.3235 5.98331 18.4456 4.03748 16.8008 2.69961C15.1695 1.37275 12.8384 0.6875 10 0.6875C7.1615 0.6875 4.83119 1.37276 3.20035 2.69126C1.55592 4.02075 0.676471 5.95152 0.676471 8.3125C0.676471 10.3214 1.28581 11.8283 2.17626 12.9376Z" fill="black" stroke="black"/>
</svg>
