<svg width="23" height="19" viewBox="0 0 23 19" fill="none" xmlns="http://www.w3.org/2000/svg">
<path d="M11.2926 2.39208L11.2843 2.38263L11.2754 2.37362C8.8288 -0.12347 4.79386 -0.124539 2.34587 2.37041C0.224289 4.46238 -0.0959702 7.84918 1.52839 10.3397C2.01642 11.1141 2.66168 11.7229 3.34299 12.1696L10.7859 18.2147C11.234 18.5953 11.8792 18.5951 12.3271 18.2142L19.7325 12.1693C20.4137 11.7229 21.023 11.1498 21.5113 10.3737C22.9741 8.04856 22.8162 4.90933 21.0204 2.7784C18.6191 -0.0812204 14.2997 -0.250676 11.7263 2.37181C11.5718 2.52576 11.3827 2.49382 11.2926 2.39208Z" fill="black" stroke="black"/>
</svg>
