<svg width="48" height="48" viewBox="0 0 48 48" fill="none" xmlns="http://www.w3.org/2000/svg">
<path d="M7.5 6V9.516L7.8285 9.9375L19.5 24.516V42.045L21.891 40.17L24.234 38.3895C25.359 43.851 30.2175 48 36 48C42.609 48 48 42.609 48 36C48 29.391 42.609 24 36 24C33.1695 24 30.5565 25.02 28.5 26.6715V24.516L40.1715 9.9345L40.5 9.5145V6H7.5ZM10.9215 9H37.08L26.298 22.5H21.705L10.92 9H10.9215ZM22.5 25.5H25.5V30.1875C24.711 31.6055 24.2166 33.1682 24.0465 34.782L22.5 36V25.5ZM36 27C40.986 27 45 31.014 45 36C45 40.986 40.986 45 36 45C31.014 45 27 40.986 27 36C27 31.014 31.014 27 36 27ZM34.5 28.5V30.0945C32.8125 30.3765 31.5 31.8075 31.5 33.5655C31.5 34.6965 32.127 35.73 33.141 36.2355L37.5 38.436C37.5041 38.511 37.4924 38.5859 37.4656 38.656C37.4388 38.7262 37.3975 38.7898 37.3444 38.8429C37.2913 38.896 37.2277 38.9373 37.1575 38.9641C37.0874 38.9909 37.0125 39.0026 36.9375 38.9985H35.0625C34.9875 39.0026 34.9126 38.9909 34.8425 38.9641C34.7723 38.9373 34.7087 38.896 34.6556 38.8429C34.6025 38.7898 34.5612 38.7262 34.5344 38.656C34.5076 38.5859 34.4959 38.511 34.5 38.436V37.5H31.5V38.4375C31.5 40.1955 32.8125 41.625 34.5 41.907V43.5H37.5V41.9055C39.1875 41.6235 40.5 40.1925 40.5 38.4345C40.5 37.3035 39.873 36.2745 38.859 35.7645L34.5 33.564C34.5 33.2295 34.728 33.0015 35.0625 33.0015H36.9375C37.272 33.0015 37.5 33.2295 37.5 33.564V34.5H40.5V33.5625C40.5 31.8045 39.1875 30.375 37.5 30.093V28.5H34.5Z" fill="white"/>
</svg>
