<svg width="63" height="45" viewBox="0 0 63 45" fill="none" xmlns="http://www.w3.org/2000/svg">
<path d="M52.5 39.2636C55.3875 39.2636 57.7238 36.9078 57.7238 34.0285L57.75 5.23515C57.75 2.35582 55.3875 0 52.5 0H10.5C7.6125 0 5.25 2.35582 5.25 5.23515V34.0285C5.25 36.9078 7.6125 39.2636 10.5 39.2636H0C0 42.143 2.3625 44.4988 5.25 44.4988H57.75C60.6375 44.4988 63 42.143 63 39.2636H52.5ZM13.125 5.23515H49.875C51.3187 5.23515 52.5 6.41306 52.5 7.85273V31.4109C52.5 32.8506 51.3187 34.0285 49.875 34.0285H13.125C11.6812 34.0285 10.5 32.8506 10.5 31.4109V7.85273C10.5 6.41306 11.6812 5.23515 13.125 5.23515ZM31.5 41.8812C30.0562 41.8812 28.875 40.7033 28.875 39.2636C28.875 37.824 30.0562 36.6461 31.5 36.6461C32.9437 36.6461 34.125 37.824 34.125 39.2636C34.125 40.7033 32.9437 41.8812 31.5 41.8812Z" fill="black"/>
</svg>
