<svg width="57" height="58" viewBox="0 0 57 58" fill="none" xmlns="http://www.w3.org/2000/svg">
<path d="M28.4999 25.7216C34.8948 25.7216 40.0789 20.1874 40.0789 13.3608C40.0789 6.53411 34.8948 1 28.4999 1C22.105 1 16.9209 6.53411 16.9209 13.3608C16.9209 20.1874 22.105 25.7216 28.4999 25.7216Z" stroke="black" stroke-width="2" stroke-linecap="round" stroke-linejoin="round"/>
<path d="M12.5789 56.6235C18.9738 56.6235 24.1578 51.0894 24.1578 44.2627C24.1578 37.436 18.9738 31.9019 12.5789 31.9019C6.18406 31.9019 1 37.436 1 44.2627C1 51.0894 6.18406 56.6235 12.5789 56.6235Z" stroke="black" stroke-width="2" stroke-linecap="round" stroke-linejoin="round"/>
<path d="M44.4208 56.6235C50.8157 56.6235 55.9998 51.0894 55.9998 44.2627C55.9998 37.436 50.8157 31.9019 44.4208 31.9019C38.0259 31.9019 32.8418 37.436 32.8418 44.2627C32.8418 51.0894 38.0259 56.6235 44.4208 56.6235Z" stroke="black" stroke-width="2" stroke-linecap="round" stroke-linejoin="round"/>
</svg>
