<svg width="57" height="56" viewBox="0 0 57 56" fill="none" xmlns="http://www.w3.org/2000/svg">
<path d="M17.8125 31.7849H16.0312C12.0958 31.7849 8.90625 35.3483 8.90625 39.746V47.6624C8.90625 52.0589 12.0958 55.6235 16.0312 55.6235H17.8125C19.7797 55.6235 21.375 53.8406 21.375 51.643V35.7654C21.375 33.5666 19.7797 31.7849 17.8125 31.7849ZM40.9688 31.7849H39.1875C37.2203 31.7849 35.625 33.5666 35.625 35.7654V51.643C35.625 53.8406 37.2203 55.6235 39.1875 55.6235H40.9688C44.9042 55.6235 48.0938 52.0589 48.0938 47.6624V39.746C48.0938 35.3495 44.9042 31.7849 40.9688 31.7849ZM28.5 0C12.5701 0 0.50877 14.7911 0 31.7849V45.6908C0 46.7883 0.797109 47.6773 1.78125 47.6773H3.5625C4.54664 47.6773 5.34375 46.7883 5.34375 45.6908V31.7849C5.34375 17.5475 15.734 5.9845 28.5 5.98201C41.266 5.9845 51.6562 17.5475 51.6562 31.7849V45.6908C51.6562 46.7883 52.4534 47.6773 53.4375 47.6773H55.2188C56.2029 47.6773 57 46.7883 57 45.6908V31.7849C56.4912 14.7911 44.4299 0 28.5 0Z" fill="black"/>
</svg>
