<svg width="58" height="56" viewBox="0 0 58 56" fill="none" xmlns="http://www.w3.org/2000/svg">
<path fill-rule="evenodd" clip-rule="evenodd" d="M37.8523 36.5471C38.1889 36.2217 38.5887 35.9635 39.0288 35.7874C39.4689 35.6112 39.9406 35.5206 40.417 35.5206C40.8933 35.5206 41.365 35.6112 41.8051 35.7874C42.2452 35.9635 42.645 36.2217 42.9816 36.5471L56.9379 50.0221C57.6181 50.6784 58.0004 51.5686 58.0007 52.4971C58.0011 53.4255 57.6194 54.3161 56.9397 54.9728C56.26 55.6296 55.3379 55.9987 54.3763 55.999C53.4147 55.9994 52.4923 55.6308 51.8121 54.9746L37.8559 41.4996C37.5188 41.1745 37.2515 40.7885 37.069 40.3636C36.8866 39.9387 36.7927 39.4833 36.7927 39.0233C36.7927 38.5634 36.8866 38.1079 37.069 37.683C37.2515 37.2581 37.5188 36.8721 37.8559 36.5471H37.8523Z" fill="black"/>
<path fill-rule="evenodd" clip-rule="evenodd" d="M23.5625 42C26.1807 42 28.7733 41.5021 31.1923 40.5347C33.6112 39.5673 35.8091 38.1493 37.6604 36.3618C39.5118 34.5743 40.9804 32.4522 41.9823 30.1167C42.9843 27.7811 43.5 25.2779 43.5 22.75C43.5 20.2221 42.9843 17.7189 41.9823 15.3833C40.9804 13.0478 39.5118 10.9257 37.6604 9.13819C35.8091 7.35067 33.6112 5.93272 31.1923 4.96532C28.7733 3.99792 26.1807 3.5 23.5625 3.5C18.2747 3.5 13.2036 5.52812 9.46456 9.1382C5.72555 12.7483 3.625 17.6446 3.625 22.75C3.625 27.8554 5.72555 32.7517 9.46456 36.3618C13.2036 39.9719 18.2747 42 23.5625 42ZM47.125 22.75C47.125 28.7837 44.6425 34.5702 40.2237 38.8367C35.8049 43.1031 29.8117 45.5 23.5625 45.5C17.3133 45.5 11.3201 43.1031 6.9013 38.8367C2.48247 34.5702 0 28.7837 0 22.75C0 16.7163 2.48247 10.9298 6.9013 6.66332C11.3201 2.39687 17.3133 0 23.5625 0C29.8117 0 35.8049 2.39687 40.2237 6.66332C44.6425 10.9298 47.125 16.7163 47.125 22.75Z" fill="black"/>
</svg>
